<svg width="146" height="38" viewBox="0 0 146 38" fill="none" xmlns="http://www.w3.org/2000/svg">
<path d="M27.5379 1.24306V37.2817H19.8662V34.8618C18.1777 36.8181 15.6679 38 12.2351 38C5.52685 38 0 32.0853 0 24.418C0 16.7508 5.52685 10.836 12.2351 10.836C15.6679 10.836 18.1777 12.018 19.8662 13.9743V1.24306H27.5379ZM19.8662 24.3976C19.8662 20.5411 17.3056 18.1212 13.7816 18.1212C10.2576 18.1212 7.69702 20.5411 7.69702 24.3976C7.69702 28.2542 10.2323 30.6741 13.7816 30.6741C17.331 30.6741 19.8662 28.2542 19.8662 24.3976Z" fill="white"/>
<path d="M47.5207 11.0194V19.7667C44.3466 19.2573 39.8389 20.5411 39.8389 25.6305V37.2817H32.1571V11.534H39.8389V16.1191C40.8631 12.665 44.2959 11.0194 47.5207 11.0194Z" fill="white"/>
<path d="M49.8481 4.64108C49.8461 3.72387 50.1152 2.82673 50.6214 2.0634C51.1275 1.30007 51.8478 0.70495 52.691 0.353489C53.5342 0.00202835 54.4623 -0.0899382 55.3576 0.0892522C56.2529 0.268443 57.0751 0.710718 57.7199 1.36C58.3647 2.00928 58.8031 2.83631 58.9794 3.73624C59.1558 4.63617 59.0622 5.56845 58.7105 6.41487C58.3589 7.26129 57.765 7.98373 57.0041 8.49057C56.2433 8.99742 55.3498 9.26584 54.4369 9.2618C53.2234 9.24462 52.0646 8.75197 51.2075 7.88882C50.3503 7.02568 49.8625 5.86031 49.8481 4.64108ZM50.6137 11.534H58.2956V37.2816H50.5935L50.6137 11.534Z" fill="white"/>
<path d="M88.2369 11.534L78.75 37.2817H70.0541L60.5824 11.5544H69.0805L74.4096 27.8568L79.7336 11.5544L88.2369 11.534Z" fill="white"/>
<path d="M102.52 31.0867C103.43 31.1138 104.335 30.9543 105.18 30.6179C106.026 30.2815 106.794 29.7754 107.439 29.1304L113.584 32.6966C111.074 36.1965 107.287 37.9949 102.429 37.9949C93.6724 37.9949 88.2318 32.0802 88.2318 24.4129C88.2318 16.7457 93.7586 10.8309 101.851 10.8309C109.33 10.8309 114.862 16.6438 114.862 24.4129C114.865 25.4499 114.761 26.4845 114.553 27.5002H96.38C97.3485 30.1493 99.7063 31.0867 102.52 31.0867ZM107.236 21.723C106.415 18.7376 104.113 17.6474 101.805 17.6474C98.8849 17.6474 96.9429 19.0891 96.2279 21.723H107.236Z" fill="white"/>
<path d="M117.428 4.64111C117.426 3.72477 117.694 2.82843 118.2 2.06554C118.705 1.30265 119.424 0.707507 120.266 0.355441C121.108 0.00337509 122.035 -0.0897877 122.93 0.087745C123.824 0.265278 124.647 0.705523 125.292 1.35276C125.938 2 126.378 2.82513 126.557 3.72372C126.735 4.6223 126.645 5.55395 126.296 6.40073C125.947 7.24752 125.357 7.97137 124.599 8.48067C123.84 8.98997 122.949 9.26183 122.037 9.26184C120.82 9.24993 119.656 8.7596 118.794 7.8959C117.933 7.0322 117.442 5.86383 117.428 4.64111ZM118.193 11.534H125.875V37.2817H118.193V11.534Z" fill="white"/>
<path d="M140.727 18.9414V28.0504C140.727 30.2614 142.623 30.4703 146 30.2614V37.2817C135.965 38.3006 133.045 35.2744 133.045 28.0708V18.9414H128.948V11.534H133.045V6.64833L140.727 4.33032V11.534H146V18.9414H140.727Z" fill="white"/>
</svg>
